ply
format ascii 1.0
element vertex 512
property float32 x
property float32 y
property float32 z
property uchar red
property uchar green
property uchar blue
end_header
111	148	18	0	0	0
111	145	18	0	0	0
112	142	18	0	0	0
113	139	18	0	0	0
115	137	18	0	0	0
117	135	18	0	0	0
120	134	18	0	0	0
123	133	18	0	0	0
126	133	18	0	0	0
129	132	18	0	0	0
132	133	18	0	0	0
134	134	18	0	0	0
137	136	18	0	0	0
139	138	18	0	0	0
141	140	18	0	0	0
143	143	18	0	0	0
144	146	18	0	0	0
143	149	18	0	0	0
141	151	18	0	0	0
140	154	18	0	0	0
138	156	18	0	0	0
136	158	18	0	0	0
133	160	18	0	0	0
130	161	18	0	0	0
127	162	18	0	0	0
124	161	18	0	0	0
122	160	18	0	0	0
119	159	18	0	0	0
116	158	18	0	0	0
114	156	18	0	0	0
112	153	18	0	0	0
112	151	18	0	0	0
105	147	18	0	0	0
105	143	18	0	0	0
105	139	18	0	0	0
107	136	18	0	0	0
110	133	18	0	0	0
114	132	18	0	0	0
118	131	18	0	0	0
121	130	18	0	0	0
125	129	18	0	0	0
129	130	18	0	0	0
133	130	18	0	0	0
137	132	18	0	0	0
140	133	18	0	0	0
143	136	18	0	0	0
145	139	18	0	0	0
146	143	18	0	0	0
147	147	18	0	0	0
147	151	18	0	0	0
146	154	18	0	0	0
143	157	18	0	0	0
141	160	18	0	0	0
137	162	18	0	0	0
134	164	18	0	0	0
130	165	18	0	0	0
126	166	18	0	0	0
123	165	18	0	0	0
119	164	18	0	0	0
115	163	18	0	0	0
112	160	18	0	0	0
110	157	18	0	0	0
108	154	18	0	0	0
106	150	18	0	0	0
109	151	27	0	0	0
110	149	27	0	0	0
111	146	27	0	0	0
112	143	27	0	0	0
115	141	27	0	0	0
117	139	27	0	0	0
120	138	27	0	0	0
123	137	27	0	0	0
126	137	27	0	0	0
130	138	27	0	0	0
132	139	27	0	0	0
135	141	27	0	0	0
136	144	27	0	0	0
138	146	27	0	0	0
140	149	27	0	0	0
141	152	27	0	0	0
140	155	27	0	0	0
139	158	27	0	0	0
137	160	27	0	0	0
134	162	27	0	0	0
132	164	27	0	0	0
129	166	27	0	0	0
127	167	27	0	0	0
123	168	27	0	0	0
120	168	27	0	0	0
117	168	27	0	0	0
114	166	27	0	0	0
112	165	27	0	0	0
109	163	27	0	0	0
107	160	27	0	0	0
108	157	27	0	0	0
107	154	27	0	0	0
102	150	27	0	0	0
103	147	27	0	0	0
105	143	27	0	0	0
107	140	27	0	0	0
111	137	27	0	0	0
114	135	27	0	0	0
118	134	27	0	0	0
122	133	27	0	0	0
126	133	27	0	0	0
130	134	27	0	0	0
134	136	27	0	0	0
137	138	27	0	0	0
141	140	27	0	0	0
143	143	27	0	0	0
144	147	27	0	0	0
145	151	27	0	0	0
145	155	27	0	0	0
143	159	27	0	0	0
141	162	27	0	0	0
139	166	27	0	0	0
135	168	27	0	0	0
132	170	27	0	0	0
128	172	27	0	0	0
124	172	27	0	0	0
120	173	27	0	0	0
116	172	27	0	0	0
113	170	27	0	0	0
109	167	27	0	0	0
106	165	27	0	0	0
104	161	27	0	0	0
102	158	27	0	0	0
101	154	27	0	0	0
107	150	36	0	0	0
109	148	36	0	0	0
111	146	36	0	0	0
113	143	36	0	0	0
116	142	36	0	0	0
119	140	36	0	0	0
122	139	36	0	0	0
125	139	36	0	0	0
128	140	36	0	0	0
131	140	36	0	0	0
134	141	36	0	0	0
136	144	36	0	0	0
138	146	36	0	0	0
139	149	36	0	0	0
140	152	36	0	0	0
139	155	36	0	0	0
138	158	36	0	0	0
137	161	36	0	0	0
135	162	36	0	0	0
132	164	36	0	0	0
130	166	36	0	0	0
127	167	36	0	0	0
124	168	36	0	0	0
121	169	36	0	0	0
119	167	36	0	0	0
116	167	36	0	0	0
113	166	36	0	0	0
110	164	36	0	0	0
108	162	36	0	0	0
107	159	36	0	0	0
106	156	36	0	0	0
106	153	36	0	0	0
102	151	36	0	0	0
103	148	36	0	0	0
106	145	36	0	0	0
108	142	36	0	0	0
111	139	36	0	0	0
114	137	36	0	0	0
118	135	36	0	0	0
122	135	36	0	0	0
126	135	36	0	0	0
129	135	36	0	0	0
133	137	36	0	0	0
136	139	36	0	0	0
139	141	36	0	0	0
141	145	36	0	0	0
142	148	36	0	0	0
143	152	36	0	0	0
142	156	36	0	0	0
141	160	36	0	0	0
139	164	36	0	0	0
137	167	36	0	0	0
134	169	36	0	0	0
131	172	36	0	0	0
127	173	36	0	0	0
123	173	36	0	0	0
119	173	36	0	0	0
116	172	36	0	0	0
112	171	36	0	0	0
109	168	36	0	0	0
106	165	36	0	0	0
104	162	36	0	0	0
103	158	36	0	0	0
102	155	36	0	0	0
111	149	45	0	0	0
112	147	45	0	0	0
114	144	45	0	0	0
116	143	45	0	0	0
118	141	45	0	0	0
120	139	45	0	0	0
123	138	45	0	0	0
125	137	45	0	0	0
128	138	45	0	0	0
131	138	45	0	0	0
134	139	45	0	0	0
136	141	45	0	0	0
138	143	45	0	0	0
139	145	45	0	0	0
140	148	45	0	0	0
141	151	45	0	0	0
140	154	45	0	0	0
139	156	45	0	0	0
137	159	45	0	0	0
135	161	45	0	0	0
133	162	45	0	0	0
131	164	45	0	0	0
128	165	45	0	0	0
125	165	45	0	0	0
122	165	45	0	0	0
120	164	45	0	0	0
117	164	45	0	0	0
114	162	45	0	0	0
113	160	45	0	0	0
111	157	45	0	0	0
111	155	45	0	0	0
110	152	45	0	0	0
106	149	45	0	0	0
108	145	45	0	0	0
110	142	45	0	0	0
113	140	45	0	0	0
115	137	45	0	0	0
118	135	45	0	0	0
122	134	45	0	0	0
125	133	45	0	0	0
129	133	45	0	0	0
133	134	45	0	0	0
136	135	45	0	0	0
139	137	45	0	0	0
142	140	45	0	0	0
144	143	45	0	0	0
145	147	45	0	0	0
145	150	45	0	0	0
144	154	45	0	0	0
143	157	45	0	0	0
141	161	45	0	0	0
139	163	45	0	0	0
136	166	45	0	0	0
133	168	45	0	0	0
129	169	45	0	0	0
126	169	45	0	0	0
122	169	45	0	0	0
118	168	45	0	0	0
115	166	45	0	0	0
112	164	45	0	0	0
109	162	45	0	0	0
107	158	45	0	0	0
106	155	45	0	0	0
105	152	45	0	0	0
111	149	54	0	0	0
113	147	54	0	0	0
115	145	54	0	0	0
117	144	54	0	0	0
119	142	54	0	0	0
122	141	54	0	0	0
125	141	54	0	0	0
127	141	54	0	0	0
130	140	54	0	0	0
133	141	54	0	0	0
136	141	54	0	0	0
138	143	54	0	0	0
139	146	54	0	0	0
139	148	54	0	0	0
140	151	54	0	0	0
140	154	54	0	0	0
139	156	54	0	0	0
138	159	54	0	0	0
136	161	54	0	0	0
134	163	54	0	0	0
132	164	54	0	0	0
129	165	54	0	0	0
126	166	54	0	0	0
124	165	54	0	0	0
121	165	54	0	0	0
118	164	54	0	0	0
116	163	54	0	0	0
115	161	54	0	0	0
113	158	54	0	0	0
111	156	54	0	0	0
111	154	54	0	0	0
110	151	54	0	0	0
107	148	54	0	0	0
109	145	54	0	0	0
111	142	54	0	0	0
114	140	54	0	0	0
117	138	54	0	0	0
120	136	54	0	0	0
124	136	54	0	0	0
127	135	54	0	0	0
131	135	54	0	0	0
134	136	54	0	0	0
137	137	54	0	0	0
140	140	54	0	0	0
142	142	54	0	0	0
143	146	54	0	0	0
144	149	54	0	0	0
144	153	54	0	0	0
143	156	54	0	0	0
142	159	54	0	0	0
139	162	54	0	0	0
137	165	54	0	0	0
135	167	54	0	0	0
131	168	54	0	0	0
128	169	54	0	0	0
125	169	54	0	0	0
121	168	54	0	0	0
118	167	54	0	0	0
115	166	54	0	0	0
112	163	54	0	0	0
110	161	54	0	0	0
108	158	54	0	0	0
107	154	54	0	0	0
106	151	54	0	0	0
114	147	63	0	0	0
115	145	63	0	0	0
117	143	63	0	0	0
119	142	63	0	0	0
121	141	63	0	0	0
123	140	63	0	0	0
126	140	63	0	0	0
128	140	63	0	0	0
131	140	63	0	0	0
133	140	63	0	0	0
135	141	63	0	0	0
137	143	63	0	0	0
139	145	63	0	0	0
140	147	63	0	0	0
141	149	63	0	0	0
141	151	63	0	0	0
140	154	63	0	0	0
139	156	63	0	0	0
137	157	63	0	0	0
135	159	63	0	0	0
133	160	63	0	0	0
130	161	63	0	0	0
128	161	63	0	0	0
126	161	63	0	0	0
123	161	63	0	0	0
121	160	63	0	0	0
119	159	63	0	0	0
117	158	63	0	0	0
115	156	63	0	0	0
114	153	63	0	0	0
113	151	63	0	0	0
113	149	63	0	0	0
110	145	63	0	0	0
112	143	63	0	0	0
115	140	63	0	0	0
117	139	63	0	0	0
120	137	63	0	0	0
123	136	63	0	0	0
126	136	63	0	0	0
130	136	63	0	0	0
133	136	63	0	0	0
136	137	63	0	0	0
138	139	63	0	0	0
141	141	63	0	0	0
143	143	63	0	0	0
144	146	63	0	0	0
144	149	63	0	0	0
144	153	63	0	0	0
142	155	63	0	0	0
141	158	63	0	0	0
139	160	63	0	0	0
137	163	63	0	0	0
134	164	63	0	0	0
131	165	63	0	0	0
128	166	63	0	0	0
124	166	63	0	0	0
121	165	63	0	0	0
119	163	63	0	0	0
116	162	63	0	0	0
113	160	63	0	0	0
112	157	63	0	0	0
110	154	63	0	0	0
110	151	63	0	0	0
110	148	63	0	0	0
115	148	72	0	0	0
116	146	72	0	0	0
118	145	72	0	0	0
120	144	72	0	0	0
121	143	72	0	0	0
123	142	72	0	0	0
125	142	72	0	0	0
127	142	72	0	0	0
129	142	72	0	0	0
131	142	72	0	0	0
133	142	72	0	0	0
135	143	72	0	0	0
136	144	72	0	0	0
138	145	72	0	0	0
139	147	72	0	0	0
138	149	72	0	0	0
137	151	72	0	0	0
137	152	72	0	0	0
135	154	72	0	0	0
134	155	72	0	0	0
133	157	72	0	0	0
131	158	72	0	0	0
129	158	72	0	0	0
127	158	72	0	0	0
125	158	72	0	0	0
123	159	72	0	0	0
121	158	72	0	0	0
120	156	72	0	0	0
118	155	72	0	0	0
117	153	72	0	0	0
116	151	72	0	0	0
115	150	72	0	0	0
113	144	72	0	0	0
115	142	72	0	0	0
117	141	72	0	0	0
119	140	72	0	0	0
122	139	72	0	0	0
124	137	72	0	0	0
127	136	72	0	0	0
129	137	72	0	0	0
132	138	72	0	0	0
134	139	72	0	0	0
136	141	72	0	0	0
138	142	72	0	0	0
140	145	72	0	0	0
141	147	72	0	0	0
141	150	72	0	0	0
140	152	72	0	0	0
139	155	72	0	0	0
137	157	72	0	0	0
135	159	72	0	0	0
134	161	72	0	0	0
131	162	72	0	0	0
129	162	72	0	0	0
126	163	72	0	0	0
123	162	72	0	0	0
121	161	72	0	0	0
119	160	72	0	0	0
116	158	72	0	0	0
115	156	72	0	0	0
114	154	72	0	0	0
113	151	72	0	0	0
112	149	72	0	0	0
111	146	72	0	0	0
121	146	81	0	0	0
122	144	81	0	0	0
123	144	81	0	0	0
125	143	81	0	0	0
126	143	81	0	0	0
127	143	81	0	0	0
129	143	81	0	0	0
130	143	81	0	0	0
131	143	81	0	0	0
133	144	81	0	0	0
134	144	81	0	0	0
135	145	81	0	0	0
135	147	81	0	0	0
135	148	81	0	0	0
135	149	81	0	0	0
135	151	81	0	0	0
134	152	81	0	0	0
133	153	81	0	0	0
132	154	81	0	0	0
131	154	81	0	0	0
130	155	81	0	0	0
128	155	81	0	0	0
127	155	81	0	0	0
126	155	81	0	0	0
124	154	81	0	0	0
123	154	81	0	0	0
122	153	81	0	0	0
121	152	81	0	0	0
121	151	81	0	0	0
121	149	81	0	0	0
120	148	81	0	0	0
121	147	81	0	0	0
118	143	81	0	0	0
120	141	81	0	0	0
122	140	81	0	0	0
123	139	81	0	0	0
125	138	81	0	0	0
127	138	81	0	0	0
130	138	81	0	0	0
131	139	81	0	0	0
133	140	81	0	0	0
135	141	81	0	0	0
137	142	81	0	0	0
138	144	81	0	0	0
139	146	81	0	0	0
139	148	81	0	0	0
139	150	81	0	0	0
138	152	81	0	0	0
137	153	81	0	0	0
135	155	81	0	0	0
133	156	81	0	0	0
132	157	81	0	0	0
130	158	81	0	0	0
127	158	81	0	0	0
125	158	81	0	0	0
123	158	81	0	0	0
121	157	81	0	0	0
120	156	81	0	0	0
118	154	81	0	0	0
117	152	81	0	0	0
116	150	81	0	0	0
116	148	81	0	0	0
117	146	81	0	0	0
117	144	81	0	0	0
